<svg xmlns="http://www.w3.org/2000/svg" width="17" height="32" viewBox="0 0 17 32"><path d="M9.557.823a2.824 2.824 0 11-2.162 5.218A2.824 2.824 0 019.557.823z"></path><path d="M16.295 3.119a8.994 8.994 0 00-1.232-1.608l.003.003c-.223-.234-.447-.447-.681-.66s-.457-.386-.752-.61a1.269 1.269 0 00-1.754.311l-.003.004a1.257 1.257 0 00.152 1.615s1.991 1.788 1.991 3.139c0 1.646-4.51 1.585-5.547 1.575l-.225.001c-1.017 0-2.018-.067-2.999-.196l.115.012c-.447-.061-2.438-.396-2.438-1.392l-.001-.064c0-.298.08-.577.219-.818l-.004.008c.193-.417 1.778-2.276 1.778-2.276A1.26 1.26 0 003.289.245l.003-.002c-.295.224-.508.406-.752.61a6.941 6.941 0 00-.654.652l-.007.008A8.988 8.988 0 00.672 3.078l-.022.04A4.602 4.602 0 000 5.431v.003c.019.489.133.948.324 1.363l-.009-.022c.177.429.406.798.685 1.123l-.004-.005a4.959 4.959 0 001.917 1.34l.034.011c.553.224 1.205.41 1.88.53l.06.009.152.02v7.721l-.63 13.156-.001.057c0 .653.497 1.19 1.134 1.253h.125a1.25 1.25 0 001.241-1.102l.001-.006L8.26 19.443h.874l1.818 4.551-.894 6.583a1.253 1.253 0 002.467.444l.001-.008L14.09 23.8a1.173 1.173 0 00-.054-.709l.003.008-2.113-5.77V9.801l.152-.02a9.993 9.993 0 002.008-.562l-.068.024a4.97 4.97 0 001.946-1.346l.005-.005c.268-.321.493-.69.66-1.089l.011-.028c.183-.393.295-.853.305-1.337v-.004c0-.856-.242-1.656-.661-2.335l.011.019z"></path></svg>